<?xml version="1.0" encoding="utf-8"?>
<!-- Generator: Adobe Illustrator 19.2.1, SVG Export Plug-In . SVG Version: 6.00 Build 0)  -->
<svg version="1.1" id="Layer_1" xmlns="http://www.w3.org/2000/svg" xmlns:xlink="http://www.w3.org/1999/xlink" x="0px" y="0px"
	 viewBox="0 0 741.5 268.7" style="enable-background:new 0 0 741.5 268.7;" xml:space="preserve">
<style type="text/css">
	.st0{fill:#263470;}
	.st1{fill-rule:evenodd;clip-rule:evenodd;fill:#2DABE2;}
	.st2{clip-path:url(#SVGID_2_);fill:url(#SVGID_3_);}
	.st3{clip-path:url(#SVGID_5_);fill:url(#SVGID_6_);}
	.st4{clip-path:url(#SVGID_8_);fill:url(#SVGID_9_);}
	.st5{clip-path:url(#SVGID_11_);fill:url(#SVGID_12_);}
	.st6{clip-path:url(#SVGID_14_);fill:url(#SVGID_15_);}
	.st7{clip-path:url(#SVGID_17_);fill:url(#SVGID_18_);}
	.st8{clip-path:url(#SVGID_20_);fill:url(#SVGID_21_);}
	.st9{clip-path:url(#SVGID_23_);fill:url(#SVGID_24_);}
	.st10{clip-path:url(#SVGID_26_);fill:url(#SVGID_27_);}
	.st11{clip-path:url(#SVGID_29_);fill:url(#SVGID_30_);}
	.st12{clip-path:url(#SVGID_32_);fill:url(#SVGID_33_);}
	.st13{clip-path:url(#SVGID_35_);fill:url(#SVGID_36_);}
	.st14{fill:#04559F;}
</style>
<polygon class="st0" points="59.9,92 124.9,92 124.9,107.9 79,107.9 79,120.2 122.8,120.2 122.8,135.6 79,135.6 79,158.2 
	59.9,158.2 "/>
<g>
	<path class="st0" d="M135.1,115.2c0-19.4,10.2-24,27.4-24h22.4c27.2,0,30.7,6.2,30.5,25h-19.1v-1.8c0-4.8-3.3-6.1-8.9-6.1h-20.8
		c-10.1,0-11.9,5-11.9,13.3v7.1c0,9.6,1.9,13.3,10.9,13.3h20.4c8.6,0,11.2-0.9,11.2-9.1h19.1v6.2c0,11.2-3.8,19.9-22.9,19.9h-30.8
		c-17.2,0-27.4-4.6-27.4-24V115.2z"/>
	<path class="st0" d="M226.9,92h16.5v27.1h0.2c2.9-6.5,8.7-8.2,17.5-8.2c10.2,0,24.5,0.5,24.5,20.6v26.8h-16.5v-26.8
		c0-4.6-3.4-6.9-10.7-6.9h-3.8c-7,0-11.3,3.5-11.3,10.2v23.5h-16.5V92z"/>
	<polygon class="st0" points="297.8,92 362.7,92 362.7,107.9 316.8,107.9 316.8,120.2 360.6,120.2 360.6,135.6 316.8,135.6 
		316.8,158.2 297.8,158.2 	"/>
	<path class="st0" d="M374.2,92h52c18.1,0,22.5,9.7,22.5,22.7v5.7c0,9.9-4,21.2-17.5,21.2h-37.9v16.6h-19.1V92z M393.3,125.1H423
		c4.5,0,6.2-3.1,6.2-7v-2.6c0-4.5-2.1-7-7.8-7h-28V125.1z"/>
	<path class="st1" d="M510.9,136c-24.7,20.9-89,41.5-177.1,54C196,209.6,52.1,201.9,12.6,172.8c-17.4-12.8-11.7-27.7,12-42
		c-14,11.8-15.3,23.7-1,34.2c39.6,29.1,183.5,36.8,321.3,17.2C422,171.3,480.9,154.1,510.9,136"/>
</g>
<g>
	<defs>
		<path id="SVGID_1_" d="M553.3,25.6c-1.6,1.2-3.8,2.7-5.4,3.9c-2.2,1.8-5.1,4.2-7.3,6c1.8-1.5,4.4-3.6,8.2-5.9
			c24.4-14.7,67.6-25.8,88.9-22.9l-1.3-0.2c-3.2-0.4-6.6-0.5-10-0.5C600.2,6,569.5,15.4,553.3,25.6"/>
	</defs>
	<clipPath id="SVGID_2_">
		<use xlink:href="#SVGID_1_"  style="overflow:visible;"/>
	</clipPath>
	
		<radialGradient id="SVGID_3_" cx="-478.7286" cy="4380.8921" r="1" gradientTransform="matrix(278.196 0 0 -278.196 133707.0469 1218996.125)" gradientUnits="userSpaceOnUse">
		<stop  offset="0" style="stop-color:#0C1827"/>
		<stop  offset="0.3024" style="stop-color:#0D1929"/>
		<stop  offset="0.4395" style="stop-color:#111F2E"/>
		<stop  offset="0.5433" style="stop-color:#162837"/>
		<stop  offset="0.6303" style="stop-color:#1D3344"/>
		<stop  offset="0.7068" style="stop-color:#264357"/>
		<stop  offset="0.7759" style="stop-color:#2F5972"/>
		<stop  offset="0.8394" style="stop-color:#377596"/>
		<stop  offset="0.897" style="stop-color:#3A98C6"/>
		<stop  offset="0.9152" style="stop-color:#38A7DF"/>
		<stop  offset="1" style="stop-color:#66BDEA"/>
	</radialGradient>
	<rect x="540.6" y="3.8" class="st2" width="97" height="31.7"/>
</g>
<g>
	<defs>
		<path id="SVGID_4_" d="M514.9,68.5c-1.3,2.6-3,6.1-4.2,8.8l-1.6,4c1.3-2.7,2.6-5.3,6.9-9.4c31.7-30,129.1-55.4,164.3-47.7
			c0,0,0,0,0,0c-7.4-1.9-16.3-2.8-26-2.8C603.9,21.3,530,44.4,514.9,68.5"/>
	</defs>
	<clipPath id="SVGID_5_">
		<use xlink:href="#SVGID_4_"  style="overflow:visible;"/>
	</clipPath>
	
		<radialGradient id="SVGID_6_" cx="-478.7286" cy="4380.8921" r="1" gradientTransform="matrix(278.1917 0 0 -278.1917 133705.0156 1218977.5)" gradientUnits="userSpaceOnUse">
		<stop  offset="0" style="stop-color:#0C1827"/>
		<stop  offset="0.3024" style="stop-color:#0D1929"/>
		<stop  offset="0.4395" style="stop-color:#111F2E"/>
		<stop  offset="0.5433" style="stop-color:#162837"/>
		<stop  offset="0.6303" style="stop-color:#1D3344"/>
		<stop  offset="0.7068" style="stop-color:#264357"/>
		<stop  offset="0.7759" style="stop-color:#2F5972"/>
		<stop  offset="0.8394" style="stop-color:#377596"/>
		<stop  offset="0.897" style="stop-color:#3A98C6"/>
		<stop  offset="0.9152" style="stop-color:#38A7DF"/>
		<stop  offset="1" style="stop-color:#66BDEA"/>
	</radialGradient>
	<rect x="509.1" y="16.4" class="st3" width="171.2" height="64.9"/>
</g>
<g>
	<defs>
		<path id="SVGID_7_" d="M501.3,119.6v0.2c0,4.3,0.1,10,0.4,14.2c0.1-1.4,0.2-3.4,0.6-4.7C513.7,95.4,653.1,48.1,709.4,59
			c0,0,0,0,0,0c-10.1-2.8-22-4.1-34.9-4.1C604.1,54.8,503.2,92.7,501.3,119.6"/>
	</defs>
	<clipPath id="SVGID_8_">
		<use xlink:href="#SVGID_7_"  style="overflow:visible;"/>
	</clipPath>
	
		<radialGradient id="SVGID_9_" cx="-478.7286" cy="4380.8921" r="1" gradientTransform="matrix(278.196 0 0 -278.196 133707.0781 1218996.375)" gradientUnits="userSpaceOnUse">
		<stop  offset="0" style="stop-color:#0C1827"/>
		<stop  offset="0.3024" style="stop-color:#0D1929"/>
		<stop  offset="0.4395" style="stop-color:#111F2E"/>
		<stop  offset="0.5433" style="stop-color:#162837"/>
		<stop  offset="0.6303" style="stop-color:#1D3344"/>
		<stop  offset="0.7068" style="stop-color:#264357"/>
		<stop  offset="0.7759" style="stop-color:#2F5972"/>
		<stop  offset="0.8394" style="stop-color:#377596"/>
		<stop  offset="0.897" style="stop-color:#3A98C6"/>
		<stop  offset="0.9152" style="stop-color:#38A7DF"/>
		<stop  offset="1" style="stop-color:#66BDEA"/>
	</radialGradient>
	<rect x="501.3" y="48.1" class="st4" width="208.1" height="86"/>
</g>
<g>
	<defs>
		<path id="SVGID_10_" d="M512,173l2.9,5.8l4,7c-1-2.2-2.1-4.7-0.8-8.6c12.4-36,151.5-78.8,204.2-69.5c0,0,0,0,0-0.1
			c-9.2-2.8-20.7-4-33.4-4C616.8,103.6,503.2,143.7,512,173"/>
	</defs>
	<clipPath id="SVGID_11_">
		<use xlink:href="#SVGID_10_"  style="overflow:visible;"/>
	</clipPath>
	
		<radialGradient id="SVGID_12_" cx="-478.7286" cy="4380.8921" r="1" gradientTransform="matrix(278.1984 0 0 -278.1984 133708.2188 1219006.75)" gradientUnits="userSpaceOnUse">
		<stop  offset="0" style="stop-color:#0C1827"/>
		<stop  offset="0.3024" style="stop-color:#0D1929"/>
		<stop  offset="0.4395" style="stop-color:#111F2E"/>
		<stop  offset="0.5433" style="stop-color:#162837"/>
		<stop  offset="0.6303" style="stop-color:#1D3344"/>
		<stop  offset="0.7068" style="stop-color:#264357"/>
		<stop  offset="0.7759" style="stop-color:#2F5972"/>
		<stop  offset="0.8394" style="stop-color:#377596"/>
		<stop  offset="0.897" style="stop-color:#3A98C6"/>
		<stop  offset="0.9152" style="stop-color:#38A7DF"/>
		<stop  offset="1" style="stop-color:#66BDEA"/>
	</radialGradient>
	<rect x="503.2" y="98.5" class="st5" width="219.1" height="87.4"/>
</g>
<g>
	<defs>
		<path id="SVGID_13_" d="M541.7,211.6c0.5,1.2,1.8,2.4,2.7,3.3c2.7,2,6.2,4.7,8.9,6.6l2.9,1.9c-0.9-0.7-2.2-1.5-2.9-2.4
			c-18.4-23.3,99.2-70.5,159.3-64c0.9,0.1,2.1,0.3,3,0.4c0,0,0,0,0-0.1c-8.5-2.8-18.7-4-29.9-4C623.8,153.5,532.4,190.9,541.7,211.6
			"/>
	</defs>
	<clipPath id="SVGID_14_">
		<use xlink:href="#SVGID_13_"  style="overflow:visible;"/>
	</clipPath>
	
		<radialGradient id="SVGID_15_" cx="-478.7286" cy="4380.8921" r="1" gradientTransform="matrix(278.1913 0 0 -278.1913 133704.8281 1218975.75)" gradientUnits="userSpaceOnUse">
		<stop  offset="0" style="stop-color:#0C1827"/>
		<stop  offset="0.3024" style="stop-color:#0D1929"/>
		<stop  offset="0.4395" style="stop-color:#111F2E"/>
		<stop  offset="0.5433" style="stop-color:#162837"/>
		<stop  offset="0.6303" style="stop-color:#1D3344"/>
		<stop  offset="0.7068" style="stop-color:#264357"/>
		<stop  offset="0.7759" style="stop-color:#2F5972"/>
		<stop  offset="0.8394" style="stop-color:#377596"/>
		<stop  offset="0.897" style="stop-color:#3A98C6"/>
		<stop  offset="0.9152" style="stop-color:#38A7DF"/>
		<stop  offset="1" style="stop-color:#66BDEA"/>
	</radialGradient>
	<rect x="532.4" y="150.5" class="st6" width="183.4" height="72.9"/>
</g>
<g>
	<defs>
		<path id="SVGID_16_" d="M584.8,233.8c1.2,2.8,5.3,4.2,7.7,4.8l1.2,0.3c3.8,0.7,8.8,1.6,12.6,2.1l4.4,0.4c-2.2-0.2-4.3-0.4-6.4-1
			c-10.9-2.9-8.5-10.7,5.9-19.3c21.6-13,61.3-22.9,81.7-20.5c0,0,0,0,0,0c-5.2-2-11.6-2.8-18.7-2.8
			C636,197.8,579.5,221.4,584.8,233.8"/>
	</defs>
	<clipPath id="SVGID_17_">
		<use xlink:href="#SVGID_16_"  style="overflow:visible;"/>
	</clipPath>
	
		<radialGradient id="SVGID_18_" cx="-478.7285" cy="4380.8916" r="1" gradientTransform="matrix(278.1844 0 0 -278.1844 133701.4688 1218945.125)" gradientUnits="userSpaceOnUse">
		<stop  offset="0" style="stop-color:#0C1827"/>
		<stop  offset="0.3024" style="stop-color:#0D1929"/>
		<stop  offset="0.4395" style="stop-color:#111F2E"/>
		<stop  offset="0.5433" style="stop-color:#162837"/>
		<stop  offset="0.6303" style="stop-color:#1D3344"/>
		<stop  offset="0.7068" style="stop-color:#264357"/>
		<stop  offset="0.7759" style="stop-color:#2F5972"/>
		<stop  offset="0.8394" style="stop-color:#377596"/>
		<stop  offset="0.897" style="stop-color:#3A98C6"/>
		<stop  offset="0.9152" style="stop-color:#38A7DF"/>
		<stop  offset="1" style="stop-color:#66BDEA"/>
	</radialGradient>
	<rect x="579.5" y="197.8" class="st7" width="112.5" height="43.6"/>
</g>
<g>
	<defs>
		<path id="SVGID_19_" d="M640.6,7.3c3.1,0.9,4.3,2,4.8,2.8c7.7,11.6-61.8,38.5-94,31.2c-4.6-1.2-13.6-5.1,1.9-15.8
			c-1.7,1.1-3.8,2.7-5.4,3.9c-2.2,1.7-5.1,4.2-7.3,6c-1.3,1.2-4.4,4-5.5,7.1c-6.4,18.2,59.7,11.3,98.2-10.2
			C648.2,24,659,12.5,640.6,7.3C640.6,7.3,640.6,7.3,640.6,7.3L640.6,7.3z"/>
	</defs>
	<clipPath id="SVGID_20_">
		<use xlink:href="#SVGID_19_"  style="overflow:visible;"/>
	</clipPath>
	
		<radialGradient id="SVGID_21_" cx="-478.7609" cy="4381.0039" r="1" gradientTransform="matrix(285.2829 0 0 -285.2829 137129.2656 1250088.5)" gradientUnits="userSpaceOnUse">
		<stop  offset="0" style="stop-color:#66BDEA"/>
		<stop  offset="0.6766" style="stop-color:#66BDEA"/>
		<stop  offset="0.7485" style="stop-color:#85C7EE"/>
		<stop  offset="0.9012" style="stop-color:#CCE4F7"/>
		<stop  offset="1" style="stop-color:#FFFFFF"/>
	</radialGradient>
	<rect x="528.6" y="7.3" class="st8" width="130.4" height="53.5"/>
</g>
<g>
	<defs>
		<path id="SVGID_22_" d="M690.5,30c10.3,21-109.9,65.4-164.9,53.2c-15.3-4-12-11.7-10.7-14.7c-1.4,2.6-2.9,6.2-4.2,8.8l-1.6,4
			C503.7,96.2,528.2,99.7,553,98c70.3-4.8,162.4-46.5,136.7-69.6l-1.8-1.3C688.6,27.6,689.8,28.5,690.5,30"/>
	</defs>
	<clipPath id="SVGID_23_">
		<use xlink:href="#SVGID_22_"  style="overflow:visible;"/>
	</clipPath>
	
		<radialGradient id="SVGID_24_" cx="-478.7609" cy="4381.0039" r="1" gradientTransform="matrix(285.2771 0 0 -285.2771 137126.4844 1250063)" gradientUnits="userSpaceOnUse">
		<stop  offset="0" style="stop-color:#66BDEA"/>
		<stop  offset="0.6766" style="stop-color:#66BDEA"/>
		<stop  offset="0.7485" style="stop-color:#85C7EE"/>
		<stop  offset="0.9012" style="stop-color:#CCE4F7"/>
		<stop  offset="1" style="stop-color:#FFFFFF"/>
	</radialGradient>
	<rect x="503.7" y="27.1" class="st9" width="211.7" height="72.6"/>
</g>
<g>
	<defs>
		<path id="SVGID_25_" d="M516.4,132.5c-14.2-3.7-14.8-9.6-15.1-12.8c0,4.3,0.2,10.1,0.4,14.4c0.2,1.7,0.7,5.8,7.5,9.4
			c42,22.4,232.3-28.4,215.3-74.3l-1.7-3.1C734.6,96.9,580.2,146.5,516.4,132.5"/>
	</defs>
	<clipPath id="SVGID_26_">
		<use xlink:href="#SVGID_25_"  style="overflow:visible;"/>
	</clipPath>
	
		<radialGradient id="SVGID_27_" cx="-478.7609" cy="4381.0039" r="1" gradientTransform="matrix(285.2818 0 0 -285.2818 137128.75 1250083.75)" gradientUnits="userSpaceOnUse">
		<stop  offset="0" style="stop-color:#66BDEA"/>
		<stop  offset="0.6766" style="stop-color:#66BDEA"/>
		<stop  offset="0.7485" style="stop-color:#85C7EE"/>
		<stop  offset="0.9012" style="stop-color:#CCE4F7"/>
		<stop  offset="1" style="stop-color:#FFFFFF"/>
	</radialGradient>
	<rect x="501.2" y="66.1" class="st10" width="240.3" height="99.8"/>
</g>
<g>
	<defs>
		<path id="SVGID_28_" d="M526.7,182.1c-10.6-2.8-13-6.6-14.7-9.1v0l2.9,5.8l4,7c0.3,0.4,0.7,1,1,1.4
			c24.3,27.1,211.7-14.7,217.8-64.6l-0.1-4.6C736.5,147.8,594,196.9,526.7,182.1"/>
	</defs>
	<clipPath id="SVGID_29_">
		<use xlink:href="#SVGID_28_"  style="overflow:visible;"/>
	</clipPath>
	
		<radialGradient id="SVGID_30_" cx="-478.7609" cy="4381.0039" r="1" gradientTransform="matrix(285.2816 0 0 -285.2816 137128.6719 1250083.125)" gradientUnits="userSpaceOnUse">
		<stop  offset="0" style="stop-color:#66BDEA"/>
		<stop  offset="0.6766" style="stop-color:#66BDEA"/>
		<stop  offset="0.7485" style="stop-color:#85C7EE"/>
		<stop  offset="0.9012" style="stop-color:#CCE4F7"/>
		<stop  offset="1" style="stop-color:#FFFFFF"/>
	</radialGradient>
	<rect x="512" y="118" class="st11" width="225.7" height="96.3"/>
</g>
<g>
	<defs>
		<path id="SVGID_31_" d="M554,219.2c-5.2-1.4-7.2-2.7-9.5-4.3c2.6,2.1,6.2,4.7,8.9,6.6l2.9,1.9C585.7,240.3,704.1,211,726,175
			l1.9-4l0.5-1.2C715.6,195.6,605.7,230.5,554,219.2"/>
	</defs>
	<clipPath id="SVGID_32_">
		<use xlink:href="#SVGID_31_"  style="overflow:visible;"/>
	</clipPath>
	
		<radialGradient id="SVGID_33_" cx="-478.7609" cy="4381.0039" r="1" gradientTransform="matrix(285.2774 0 0 -285.2774 137126.6562 1250064.625)" gradientUnits="userSpaceOnUse">
		<stop  offset="0" style="stop-color:#66BDEA"/>
		<stop  offset="0.6766" style="stop-color:#66BDEA"/>
		<stop  offset="0.7485" style="stop-color:#85C7EE"/>
		<stop  offset="0.9012" style="stop-color:#CCE4F7"/>
		<stop  offset="1" style="stop-color:#FFFFFF"/>
	</radialGradient>
	<rect x="544.4" y="169.7" class="st12" width="183.9" height="70.6"/>
</g>
<g>
	<defs>
		<path id="SVGID_34_" d="M593.7,239c3.8,0.7,8.8,1.6,12.6,2.1l4.4,0.4c22.6,1.4,59-8.9,78-22l1.3-1c1.9-1.4,4.3-3.4,6.1-4.9
			C676.8,228.9,622.6,244.2,593.7,239"/>
	</defs>
	<clipPath id="SVGID_35_">
		<use xlink:href="#SVGID_34_"  style="overflow:visible;"/>
	</clipPath>
	
		<radialGradient id="SVGID_36_" cx="-478.7609" cy="4381.0039" r="1" gradientTransform="matrix(285.2709 0 0 -285.2709 137123.5 1250035.875)" gradientUnits="userSpaceOnUse">
		<stop  offset="0" style="stop-color:#66BDEA"/>
		<stop  offset="0.6766" style="stop-color:#66BDEA"/>
		<stop  offset="0.7485" style="stop-color:#85C7EE"/>
		<stop  offset="0.9012" style="stop-color:#CCE4F7"/>
		<stop  offset="1" style="stop-color:#FFFFFF"/>
	</radialGradient>
	<rect x="593.7" y="213.6" class="st13" width="102.4" height="30.6"/>
</g>
<polygon class="st14" points="199.2,216.7 213.7,216.7 213.7,220.5 203.8,220.5 203.8,225.3 212.4,225.3 212.4,228.8 203.8,228.8 
	203.8,237.3 199.2,237.3 "/>
<g>
	<path class="st14" d="M219.3,230.9c0.1,2.6,1.4,3.8,3.7,3.8c1.6,0,3-1,3.2-1.9h3.6c-1.2,3.5-3.6,5-7,5c-4.7,0-7.6-3.2-7.6-7.9
		c0-4.5,3.1-7.9,7.6-7.9c5.1,0,7.5,4.3,7.3,8.9H219.3z M226,228.3c-0.4-2.1-1.3-3.2-3.3-3.2c-2.6,0-3.4,2-3.4,3.2H226z"/>
	<rect x="232.6" y="216.7" class="st14" width="4.1" height="20.6"/>
	<rect x="240.1" y="216.7" class="st14" width="4.1" height="20.6"/>
	<path class="st14" d="M254.7,222c4.7,0,7.7,3.1,7.7,7.9c0,4.7-3,7.9-7.7,7.9c-4.7,0-7.7-3.1-7.7-7.9C247,225.1,250,222,254.7,222
		 M254.7,234.6c2.8,0,3.6-2.4,3.6-4.8c0-2.4-0.8-4.8-3.6-4.8c-2.8,0-3.6,2.4-3.6,4.8C251.1,232.2,251.9,234.6,254.7,234.6"/>
	<polygon class="st14" points="282.2,237.3 278,237.3 275.3,227.3 275.3,227.3 272.7,237.3 268.5,237.3 263.7,222.4 268.1,222.4 
		270.8,232.5 270.9,232.5 273.3,222.4 277.3,222.4 279.9,232.5 279.9,232.5 282.7,222.4 286.9,222.4 	"/>
	<path class="st14" d="M310.9,223.6c-0.3-2.1-2.3-3.6-4.5-3.6c-4.1,0-5.6,3.5-5.6,7.1c0,3.4,1.5,6.9,5.6,6.9c2.8,0,4.3-1.9,4.7-4.6
		h4.4c-0.5,5.1-4,8.4-9.1,8.4c-6.4,0-10.1-4.8-10.1-10.7c0-6.1,3.8-10.9,10.1-10.9c4.5,0,8.4,2.7,8.9,7.4H310.9z"/>
	<path class="st14" d="M318.1,216.7h4.1v7.8h0.1c1-1.7,2.8-2.5,4.4-2.5c4.4,0,5.5,2.5,5.5,6.2v9.2H328v-8.4c0-2.5-0.7-3.7-2.6-3.7
		c-2.2,0-3.2,1.2-3.2,4.3v7.8h-4.1V216.7z"/>
	<path class="st14" d="M335.1,227c0.2-3.8,3.7-5,7-5c3,0,6.6,0.7,6.6,4.2v7.8c0,1.4,0.1,2.7,0.5,3.3H345c-0.1-0.5-0.3-1-0.3-1.4
		c-1.3,1.4-3.2,1.9-5,1.9c-2.8,0-5.1-1.4-5.1-4.5c0-3.4,2.5-4.2,5.1-4.5c2.5-0.4,4.9-0.3,4.9-2c0-1.8-1.2-2-2.7-2
		c-1.6,0-2.6,0.6-2.7,2.3H335.1z M344.5,230c-0.7,0.6-2.1,0.6-3.4,0.9c-1.3,0.3-2.4,0.7-2.4,2.2c0,1.5,1.2,1.9,2.5,1.9
		c3.2,0,3.3-2.5,3.3-3.4V230z"/>
	<path class="st14" d="M351.8,222.4h3.9v2.8h0.1c0.8-1.9,2.8-3.2,4.8-3.2c0.3,0,0.6,0.1,0.9,0.1v3.8c-0.4-0.1-1-0.1-1.5-0.1
		c-3,0-4,2.2-4,4.8v6.7h-4.1V222.4z"/>
	<path class="st14" d="M368.3,222.4h3v2.7h-3v7.4c0,1.4,0.3,1.7,1.7,1.7c0.4,0,0.8,0,1.3-0.1v3.2c-0.7,0.1-1.6,0.1-2.4,0.1
		c-2.5,0-4.7-0.6-4.7-3.6v-8.8h-2.5v-2.7h2.5v-4.5h4.1V222.4z"/>
	<path class="st14" d="M376.6,230.9c0.1,2.6,1.4,3.8,3.7,3.8c1.6,0,3-1,3.2-1.9h3.6c-1.2,3.5-3.6,5-7,5c-4.7,0-7.6-3.2-7.6-7.9
		c0-4.5,3.1-7.9,7.6-7.9c5.1,0,7.5,4.3,7.3,8.9H376.6z M383.3,228.3c-0.4-2.1-1.3-3.2-3.3-3.2c-2.6,0-3.4,2-3.4,3.2H383.3z"/>
	<path class="st14" d="M389.8,222.4h3.9v2.8h0.1c0.8-1.9,2.8-3.2,4.8-3.2c0.3,0,0.6,0.1,0.9,0.1v3.8c-0.4-0.1-1-0.1-1.5-0.1
		c-3,0-4,2.2-4,4.8v6.7h-4.1V222.4z"/>
	<path class="st14" d="M403.9,230.9c0.1,2.6,1.4,3.8,3.7,3.8c1.6,0,3-1,3.2-1.9h3.6c-1.2,3.5-3.6,5-7,5c-4.7,0-7.6-3.2-7.6-7.9
		c0-4.5,3.1-7.9,7.6-7.9c5.1,0,7.5,4.3,7.3,8.9H403.9z M410.6,228.3c-0.4-2.1-1.3-3.2-3.3-3.2c-2.6,0-3.4,2-3.4,3.2H410.6z"/>
	<path class="st14" d="M427.8,235.4L427.8,235.4c-1,1.6-2.7,2.3-4.6,2.3c-4.5,0-6.7-3.9-6.7-8c0-4,2.2-7.7,6.6-7.7
		c1.8,0,3.5,0.8,4.4,2.2h0.1v-7.5h4.1v20.6h-3.9V235.4z M424.2,225.1c-2.7,0-3.6,2.3-3.6,4.8c0,2.3,1.1,4.8,3.6,4.8
		c2.7,0,3.5-2.4,3.5-4.8C427.8,227.4,426.9,225.1,424.2,225.1"/>
	<polygon class="st14" points="199.2,242.9 213.7,242.9 213.7,246.7 203.8,246.7 203.8,251.5 212.4,251.5 212.4,255 203.8,255 
		203.8,263.5 199.2,263.5 	"/>
	<path class="st14" d="M220.2,246.3h-4.1v-3.4h4.1V246.3z M216.1,248.6h4.1v14.9h-4.1V248.6z"/>
	<path class="st14" d="M223.4,248.6h3.9v2.1h0.1c1-1.7,2.8-2.5,4.6-2.5c4.4,0,5.5,2.5,5.5,6.2v9.2h-4.1v-8.4c0-2.5-0.7-3.7-2.6-3.7
		c-2.2,0-3.2,1.2-3.2,4.3v7.8h-4.1V248.6z"/>
	<path class="st14" d="M240.4,253.2c0.2-3.8,3.7-5,7-5c3,0,6.6,0.7,6.6,4.2v7.8c0,1.4,0.1,2.7,0.5,3.3h-4.2c-0.1-0.5-0.3-1-0.3-1.4
		c-1.3,1.4-3.2,1.9-5,1.9c-2.8,0-5.1-1.4-5.1-4.5c0-3.4,2.5-4.2,5.1-4.5c2.5-0.4,4.9-0.3,4.9-2c0-1.8-1.2-2-2.7-2
		c-1.6,0-2.6,0.6-2.7,2.3H240.4z M249.8,256.2c-0.7,0.6-2.1,0.6-3.4,0.9c-1.3,0.3-2.4,0.7-2.4,2.2c0,1.5,1.2,1.9,2.5,1.9
		c3.2,0,3.3-2.5,3.3-3.4V256.2z"/>
	<path class="st14" d="M257.1,248.6h3.9v2.1h0.1c1-1.7,2.8-2.5,4.6-2.5c4.4,0,5.5,2.5,5.5,6.2v9.2H267v-8.4c0-2.5-0.7-3.7-2.6-3.7
		c-2.2,0-3.2,1.2-3.2,4.3v7.8h-4.1V248.6z"/>
	<path class="st14" d="M284.4,253.9c-0.3-1.7-1.3-2.6-3-2.6c-2.6,0-3.5,2.7-3.5,4.9c0,2.1,0.8,4.7,3.4,4.7c1.9,0,3-1.2,3.3-3h4
		c-0.5,4-3.3,6.1-7.2,6.1c-4.5,0-7.5-3.2-7.5-7.7c0-4.7,2.8-8.1,7.6-8.1c3.5,0,6.8,1.8,7,5.7H284.4z"/>
	<path class="st14" d="M295.1,246.3H291v-3.4h4.1V246.3z M291,248.6h4.1v14.9H291V248.6z"/>
	<path class="st14" d="M298.1,253.2c0.2-3.8,3.7-5,7-5c3,0,6.6,0.7,6.6,4.2v7.8c0,1.4,0.1,2.7,0.5,3.3h-4.2c-0.1-0.5-0.3-1-0.3-1.4
		c-1.3,1.4-3.2,1.9-5,1.9c-2.8,0-5.1-1.4-5.1-4.5c0-3.4,2.5-4.2,5.1-4.5c2.5-0.4,4.9-0.3,4.9-2c0-1.8-1.2-2-2.7-2
		c-1.6,0-2.6,0.6-2.7,2.3H298.1z M307.6,256.2c-0.7,0.6-2.1,0.6-3.4,0.9c-1.3,0.3-2.4,0.7-2.4,2.2c0,1.5,1.2,1.9,2.5,1.9
		c3.2,0,3.3-2.5,3.3-3.4V256.2z"/>
	<rect x="315" y="242.9" class="st14" width="4.1" height="20.6"/>
	<path class="st14" d="M330.8,242.9h9.3c5.1,0,7.1,3.3,7.1,6.6s-2,6.6-7.1,6.6h-4.8v7.4h-4.5V242.9z M335.4,252.6h3.5
		c2.1,0,4-0.5,4-3.1c0-2.6-1.9-3.1-4-3.1h-3.5V252.6z"/>
	<path class="st14" d="M349.7,248.6h3.9v2.8h0.1c0.8-1.9,2.8-3.2,4.8-3.2c0.3,0,0.6,0.1,0.9,0.1v3.8c-0.4-0.1-1-0.1-1.5-0.1
		c-3,0-4,2.2-4,4.8v6.7h-4.1V248.6z"/>
	<path class="st14" d="M360.8,253.2c0.2-3.8,3.7-5,7-5c3,0,6.6,0.7,6.6,4.2v7.8c0,1.4,0.1,2.7,0.5,3.3h-4.2c-0.1-0.5-0.3-1-0.3-1.4
		c-1.3,1.4-3.2,1.9-5,1.9c-2.8,0-5.1-1.4-5.1-4.5c0-3.4,2.5-4.2,5.1-4.5c2.5-0.4,4.9-0.3,4.9-2c0-1.8-1.2-2-2.7-2
		c-1.6,0-2.6,0.6-2.7,2.3H360.8z M370.2,256.2c-0.7,0.6-2.1,0.6-3.4,0.9c-1.3,0.3-2.4,0.7-2.4,2.2c0,1.5,1.2,1.9,2.5,1.9
		c3.2,0,3.3-2.5,3.3-3.4V256.2z"/>
	<path class="st14" d="M387.7,253.9c-0.3-1.7-1.3-2.6-3-2.6c-2.6,0-3.5,2.7-3.5,4.9c0,2.1,0.8,4.7,3.4,4.7c1.9,0,3-1.2,3.3-3h4
		c-0.5,4-3.3,6.1-7.2,6.1c-4.5,0-7.5-3.2-7.5-7.7c0-4.7,2.8-8.1,7.6-8.1c3.5,0,6.8,1.8,7,5.7H387.7z"/>
	<path class="st14" d="M399.3,248.6h3v2.7h-3v7.4c0,1.4,0.3,1.7,1.7,1.7c0.4,0,0.8,0,1.3-0.1v3.2c-0.7,0.1-1.6,0.1-2.4,0.1
		c-2.5,0-4.7-0.6-4.7-3.6v-8.8h-2.5v-2.7h2.5v-4.5h4.1V248.6z"/>
	<path class="st14" d="M408.5,246.3h-4.1v-3.4h4.1V246.3z M404.4,248.6h4.1v14.9h-4.1V248.6z"/>
	<path class="st14" d="M416.9,248.6h3v2.7h-3v7.4c0,1.4,0.3,1.7,1.7,1.7c0.4,0,0.8,0,1.3-0.1v3.2c-0.7,0.1-1.6,0.1-2.4,0.1
		c-2.5,0-4.7-0.6-4.7-3.6v-8.8h-2.5v-2.7h2.5v-4.5h4.1V248.6z"/>
	<path class="st14" d="M426.1,246.3H422v-3.4h4.1V246.3z M422,248.6h4.1v14.9H422V248.6z"/>
	<path class="st14" d="M436.6,248.2c4.7,0,7.7,3.1,7.7,7.9c0,4.7-3,7.9-7.7,7.9c-4.7,0-7.7-3.1-7.7-7.9
		C428.9,251.3,431.9,248.2,436.6,248.2 M436.6,260.9c2.8,0,3.6-2.4,3.6-4.8c0-2.4-0.8-4.8-3.6-4.8c-2.8,0-3.6,2.4-3.6,4.8
		C433,258.5,433.9,260.9,436.6,260.9"/>
	<path class="st14" d="M447,248.6h3.9v2.1h0.1c1-1.7,2.8-2.5,4.6-2.5c4.4,0,5.5,2.5,5.5,6.2v9.2H457v-8.4c0-2.5-0.7-3.7-2.6-3.7
		c-2.2,0-3.2,1.2-3.2,4.3v7.8H447V248.6z"/>
	<path class="st14" d="M467.6,257.1c0.1,2.6,1.4,3.8,3.7,3.8c1.6,0,3-1,3.2-1.9h3.6c-1.2,3.5-3.6,5-7,5c-4.7,0-7.6-3.2-7.6-7.9
		c0-4.5,3.1-7.9,7.6-7.9c5.1,0,7.5,4.3,7.3,8.9H467.6z M474.2,254.5c-0.4-2.1-1.3-3.2-3.3-3.2c-2.6,0-3.4,2-3.4,3.2H474.2z"/>
	<path class="st14" d="M480.8,248.6h3.9v2.8h0.1c0.8-1.9,2.8-3.2,4.8-3.2c0.3,0,0.6,0.1,0.9,0.1v3.8c-0.4-0.1-1-0.1-1.5-0.1
		c-3,0-4,2.2-4,4.8v6.7h-4.1V248.6z"/>
</g>
</svg>
